<svg xmlns="http://www.w3.org/2000/svg" data-name="Layer 1" viewBox="0 0 100 125" x="0px" y="0px"><title>menghindar</title><path d="M85.87,47.52a3.54,3.54,0,0,0-1.55-2.35l-16-10.5a.68.68,0,0,0-.27-.1L67,34.39a5.76,5.76,0,1,0-7-1.16l-2-.33h-.23L38.6,36.28a3.4,3.4,0,0,0-2.23,1.43,3.48,3.48,0,0,0-.57,2.6,3.47,3.47,0,0,0,4.05,2.78l12.74-2.42-3.13,9.58L31.6,70.65a3.46,3.46,0,0,0,2.6,5.75,3.5,3.5,0,0,0,2.65-1.22l16.41-19.3L60.6,57.7l-4.33,5.12a3.71,3.71,0,0,0,5.54,4.92l9.44-10.07a3.15,3.15,0,0,0-1.71-5.25l-5.18-1,3.77-8.24,12.32,7.93a3.54,3.54,0,0,0,5.42-3.6ZM64.18,25a4.34,4.34,0,1,1-4.33,4.34A4.35,4.35,0,0,1,64.18,25Zm19.9,24.4a2.13,2.13,0,0,1-2.86.51l-13-8.37a.7.7,0,0,0-.58-.09.73.73,0,0,0-.45.39l-4.49,9.81a.71.71,0,0,0,.52,1l6.07,1.15a1.74,1.74,0,0,1,.94,2.89L60.77,66.77a2.28,2.28,0,0,1-2.78.44,2.33,2.33,0,0,1-1.14-1.59,2.27,2.27,0,0,1,.51-1.89l5.06-6a.7.7,0,0,0,.13-.68.67.67,0,0,0-.5-.46l-8.87-2.2a.73.73,0,0,0-.71.23L35.77,74.26a2.05,2.05,0,1,1-3.11-2.68l18-20.51a.68.68,0,0,0,.14-.25L54.31,40a.72.72,0,0,0-.67-.93l-.14,0L39.59,41.69a2,2,0,0,1-1.54-.32,2,2,0,0,1,.8-3.7l19-3.35,9.86,1.62L83.54,46.35a2.15,2.15,0,0,1,.94,1.42A2.12,2.12,0,0,1,84.08,49.42ZM35.16,26a.71.71,0,0,1,.71-.71h4.41a.71.71,0,0,1,0,1.42H35.87A.71.71,0,0,1,35.16,26Zm7.17,0a.7.7,0,0,1,.7-.71H55.7a.71.71,0,1,1,0,1.42H43A.7.7,0,0,1,42.33,26ZM25.16,33.6a.71.71,0,0,1,.71-.71H43a.71.71,0,1,1,0,1.42H25.87A.71.71,0,0,1,25.16,33.6Zm-5.75,7.59a.71.71,0,0,1,.71-.71H31.45a.71.71,0,0,1,0,1.42H20.12A.71.71,0,0,1,19.41,41.19ZM45,49.49H14.7a.71.71,0,1,1,0-1.41H45a.71.71,0,1,1,0,1.41ZM23.39,56.38a.71.71,0,0,1-.71.71H19a.71.71,0,0,1,0-1.42h3.65A.71.71,0,0,1,23.39,56.38Zm15.89.71H26.87a.71.71,0,1,1,0-1.42H39.28a.71.71,0,1,1,0,1.42ZM33.7,63.26a.71.71,0,1,1,0,1.42H24a.71.71,0,0,1,0-1.42Zm-4.12,8.31a.7.7,0,0,1-.71.7H24a.71.71,0,0,1,0-1.41h4.84A.71.71,0,0,1,29.58,71.57Z"/><text x="0" y="115" fill="#000000" font-size="5px" font-weight="bold" font-family="'Helvetica Neue', Helvetica, Arial-Unicode, Arial, Sans-serif">Created by W.STOIC on</text><text x="0" y="120" fill="#000000" font-size="5px" font-weight="bold" font-family="'Helvetica Neue', Helvetica, Arial-Unicode, Arial, Sans-serif">from the Noun Project</text></svg>